<svg width="66" height="70" viewBox="0 0 66 70" fill="none" xmlns="http://www.w3.org/2000/svg">
<path d="M6.01562 60.5625C7.82812 58.1875 9.4375 55.9062 10.8438 53.7188C11.6562 52.4375 13.7969 48.9375 17.2656 43.2188L21.25 36.7031C24.1875 31.8906 26.1406 28.8125 27.1094 27.4688C28.7031 25.1875 30.2812 24.0469 31.8438 24.0469C32.9688 24.0469 33.5312 24.4844 33.5312 25.3594C33.5312 25.9531 33.3125 26.7031 32.875 27.6094C32.5625 28.2344 31.6875 30.4062 30.25 34.125C28.8125 37.9062 27.7031 42.125 26.9219 46.7812C26.3594 50.0938 26.0781 52.9219 26.0781 55.2656C26.0781 55.9531 26.1094 56.7188 26.1719 57.5625C26.2656 58.375 26.3906 59.2812 26.5469 60.2812C27.7969 58.7188 29.1719 56.4688 30.6719 53.5312C32.1094 50.5938 34.3281 45.9219 37.3281 39.5156C40.1719 33.3906 43.5 27.0312 47.3125 20.4375C50.4375 15 54.1719 9.5 58.5156 3.9375C60.5469 1.3125 62.1719 0 63.3906 0C63.9219 0 64.4062 0.265625 64.8438 0.796875C65.1562 1.17188 65.3125 1.59375 65.3125 2.0625C65.3125 2.6875 64.3438 4.23437 62.4062 6.70312C58.5938 11.5469 54.9531 16.9062 51.4844 22.7812C47.5156 29.5938 42.5469 39.2812 36.5781 51.8438C33.9219 57.4688 31.8906 61.4688 30.4844 63.8438C29.0156 66.2812 27.3281 67.5 25.4219 67.5C23.7969 67.5 22.5781 66.7969 21.7656 65.3906C20.9531 63.9531 20.5469 61.8281 20.5469 59.0156C20.5469 54.4844 21.2969 48.875 22.7969 42.1875C21.3281 44.0312 19.6094 46.6406 17.6406 50.0156C16.1719 52.5156 14.75 54.9219 13.375 57.2344C11.375 60.5781 10.0469 62.8281 9.39062 63.9844C8.39062 65.7656 7.35938 67.1719 6.29688 68.2031C5.51562 68.9531 4.59375 69.3281 3.53125 69.3281C2.25 69.3281 1.32812 68.7812 0.765625 67.6875C0.359375 66.9375 0.15625 66.0156 0.15625 64.9219C0.15625 57.4844 4.0625 44.1562 11.875 24.9375C15.6875 15.5312 17.9062 9.76562 18.5312 7.64062C19.0938 5.57812 19.6562 4.26562 20.2188 3.70312C20.9688 2.89063 21.8438 2.48438 22.8438 2.48438C24.2188 2.48438 24.9062 3.14062 24.9062 4.45312C24.9062 6.04688 24.3125 8.46875 23.125 11.7188C21.7812 15.4063 19.625 20.625 16.6562 27.375C14.625 32.0312 13.1875 35.5156 12.3438 37.8281C8.53125 49.3281 6.42188 56.9062 6.01562 60.5625Z" fill="white"/>
</svg>
